{
	"patcher" : 	{
		"fileversion" : 1,
		"appversion" : 		{
			"major" : 7,
			"minor" : 3,
			"revision" : 4,
			"architecture" : "x64",
			"modernui" : 1
		}
,
		"rect" : [ 42.0, 84.0, 1239.0, 914.0 ],
		"bgcolor" : [ 0.239216, 0.254902, 0.278431, 1.0 ],
		"editing_bgcolor" : [ 0.239216, 0.254902, 0.278431, 1.0 ],
		"bglocked" : 0,
		"openinpresentation" : 1,
		"default_fontsize" : 12.0,
		"default_fontface" : 0,
		"default_fontname" : "Futura Medium",
		"gridonopen" : 1,
		"gridsize" : [ 15.0, 15.0 ],
		"gridsnaponopen" : 1,
		"objectsnaponopen" : 1,
		"statusbarvisible" : 2,
		"toolbarvisible" : 1,
		"lefttoolbarpinned" : 0,
		"toptoolbarpinned" : 0,
		"righttoolbarpinned" : 0,
		"bottomtoolbarpinned" : 0,
		"toolbars_unpinned_last_save" : 0,
		"tallnewobj" : 0,
		"boxanimatetime" : 200,
		"enablehscroll" : 1,
		"enablevscroll" : 1,
		"devicewidth" : 0.0,
		"description" : "",
		"digest" : "",
		"tags" : "",
		"style" : "tatarism",
		"subpatcher_template" : "",
		"boxes" : [ 			{
				"box" : 				{
					"id" : "obj-14",
					"maxclass" : "newobj",
					"numinlets" : 1,
					"numoutlets" : 1,
					"outlettype" : [ "" ],
					"patching_rect" : [ 685.0, 392.0, 77.0, 22.0 ],
					"style" : "",
					"text" : "prepend dim"
				}

			}
, 			{
				"box" : 				{
					"id" : "obj-13",
					"maxclass" : "newobj",
					"numinlets" : 0,
					"numoutlets" : 1,
					"outlettype" : [ "" ],
					"patching_rect" : [ 685.0, 361.0, 37.0, 22.0 ],
					"style" : "",
					"text" : "r dim"
				}

			}
, 			{
				"box" : 				{
					"id" : "obj-10",
					"maxclass" : "newobj",
					"numinlets" : 1,
					"numoutlets" : 2,
					"outlettype" : [ "jit_matrix", "" ],
					"patching_rect" : [ 664.0, 428.0, 121.0, 22.0 ],
					"style" : "",
					"text" : "jit.noise 4 char 10 10"
				}

			}
, 			{
				"box" : 				{
					"bgcolor" : [ 0.372549, 0.196078, 0.486275, 1.0 ],
					"bgcolor2" : [ 0.290196, 0.309804, 0.301961, 1.0 ],
					"bgfillcolor_angle" : 270.0,
					"bgfillcolor_autogradient" : 0.0,
					"bgfillcolor_color" : [ 0.290196, 0.309804, 0.301961, 1.0 ],
					"bgfillcolor_color1" : [ 0.372549, 0.196078, 0.486275, 1.0 ],
					"bgfillcolor_color2" : [ 0.290196, 0.309804, 0.301961, 1.0 ],
					"bgfillcolor_proportion" : 0.39,
					"bgfillcolor_type" : "gradient",
					"fontsize" : 4.0,
					"gradient" : 1,
					"id" : "obj-1",
					"linecount" : 2,
					"maxclass" : "message",
					"numinlets" : 2,
					"numoutlets" : 1,
					"outlettype" : [ "" ],
					"patching_rect" : [ 770.5, 75.0, 121.5, 18.0 ],
					"style" : "",
					"text" : ";\r\nmax launch_browser https://kivanctatar.wordpress.com/"
				}

			}
, 			{
				"box" : 				{
					"bgcolor" : [ 0.372549, 0.196078, 0.486275, 1.0 ],
					"bgcolor2" : [ 0.290196, 0.309804, 0.301961, 1.0 ],
					"bgfillcolor_angle" : 270.0,
					"bgfillcolor_autogradient" : 0.0,
					"bgfillcolor_color" : [ 0.290196, 0.309804, 0.301961, 1.0 ],
					"bgfillcolor_color1" : [ 0.372549, 0.196078, 0.486275, 1.0 ],
					"bgfillcolor_color2" : [ 0.290196, 0.309804, 0.301961, 1.0 ],
					"bgfillcolor_proportion" : 0.39,
					"bgfillcolor_type" : "gradient",
					"fontsize" : 4.0,
					"gradient" : 1,
					"id" : "obj-20",
					"linecount" : 2,
					"maxclass" : "message",
					"numinlets" : 2,
					"numoutlets" : 1,
					"outlettype" : [ "" ],
					"patching_rect" : [ 894.0, 75.0, 103.0, 18.0 ],
					"style" : "",
					"text" : ";\r\nmax launch_browser http://philippepasquier.com/"
				}

			}
, 			{
				"box" : 				{
					"id" : "obj-3",
					"maxclass" : "comment",
					"numinlets" : 1,
					"numoutlets" : 0,
					"patching_rect" : [ 877.25, 49.0, 20.0, 20.0 ],
					"presentation" : 1,
					"presentation_rect" : [ 352.25, 40.0, 20.0, 20.0 ],
					"style" : "tatarism-1",
					"text" : "&"
				}

			}
, 			{
				"box" : 				{
					"bgcolor" : [ 0.372549, 0.196078, 0.486275, 1.0 ],
					"bgcolor2" : [ 0.290196, 0.309804, 0.301961, 1.0 ],
					"bgfillcolor_angle" : 270.0,
					"bgfillcolor_autogradient" : 0.0,
					"bgfillcolor_color" : [ 0.290196, 0.309804, 0.301961, 1.0 ],
					"bgfillcolor_color1" : [ 0.372549, 0.196078, 0.486275, 1.0 ],
					"bgfillcolor_color2" : [ 0.290196, 0.309804, 0.301961, 1.0 ],
					"bgfillcolor_proportion" : 0.39,
					"bgfillcolor_type" : "gradient",
					"gradient" : 1,
					"id" : "obj-6",
					"maxclass" : "message",
					"numinlets" : 2,
					"numoutlets" : 1,
					"outlettype" : [ "" ],
					"patching_rect" : [ 800.5, 48.0, 76.0, 22.0 ],
					"presentation" : 1,
					"presentation_rect" : [ 275.5, 39.0, 76.0, 22.0 ],
					"style" : "tatarism-1",
					"text" : "Kıvanç Tatar"
				}

			}
, 			{
				"box" : 				{
					"bgcolor" : [ 0.372549, 0.196078, 0.486275, 1.0 ],
					"bgcolor2" : [ 0.290196, 0.309804, 0.301961, 1.0 ],
					"bgfillcolor_angle" : 270.0,
					"bgfillcolor_autogradient" : 0.0,
					"bgfillcolor_color" : [ 0.290196, 0.309804, 0.301961, 1.0 ],
					"bgfillcolor_color1" : [ 0.372549, 0.196078, 0.486275, 1.0 ],
					"bgfillcolor_color2" : [ 0.290196, 0.309804, 0.301961, 1.0 ],
					"bgfillcolor_proportion" : 0.39,
					"bgfillcolor_type" : "gradient",
					"gradient" : 1,
					"id" : "obj-8",
					"maxclass" : "message",
					"numinlets" : 2,
					"numoutlets" : 1,
					"outlettype" : [ "" ],
					"patching_rect" : [ 894.0, 48.0, 102.0, 22.0 ],
					"presentation" : 1,
					"presentation_rect" : [ 369.0, 39.0, 102.0, 22.0 ],
					"style" : "",
					"text" : "Philippe Pasquier"
				}

			}
, 			{
				"box" : 				{
					"id" : "obj-80",
					"maxclass" : "comment",
					"numinlets" : 1,
					"numoutlets" : 0,
					"patching_rect" : [ 776.0, 48.0, 26.0, 20.0 ],
					"presentation" : 1,
					"presentation_rect" : [ 251.0, 39.0, 26.0, 20.0 ],
					"style" : "tatarism-1",
					"text" : "by "
				}

			}
, 			{
				"box" : 				{
					"id" : "obj-7",
					"maxclass" : "newobj",
					"numinlets" : 1,
					"numoutlets" : 2,
					"outlettype" : [ "jit_matrix", "" ],
					"patching_rect" : [ 529.0, 921.5, 149.0, 22.0 ],
					"style" : "tatarism",
					"text" : "jit.matrix 4 char 400 400"
				}

			}
, 			{
				"box" : 				{
					"id" : "obj-4",
					"linecount" : 6,
					"maxclass" : "comment",
					"numinlets" : 1,
					"numoutlets" : 0,
					"patching_rect" : [ 529.0, 951.0, 150.0, 89.0 ],
					"style" : "tatarism",
					"text" : "Send exportimage message to the jit.matrix object to save the visual. We use another jit.matrix object to upscale the visual to 400x400 pixels."
				}

			}
, 			{
				"box" : 				{
					"id" : "obj-2",
					"maxclass" : "message",
					"numinlets" : 2,
					"numoutlets" : 1,
					"outlettype" : [ "" ],
					"patching_rect" : [ 529.0, 882.0, 80.0, 22.0 ],
					"presentation" : 1,
					"presentation_rect" : [ 361.0, 293.0, 80.0, 22.0 ],
					"style" : "",
					"text" : "exportimage"
				}

			}
, 			{
				"box" : 				{
					"id" : "obj-66",
					"maxclass" : "comment",
					"numinlets" : 1,
					"numoutlets" : 0,
					"patching_rect" : [ 529.0, 111.0, 385.0, 20.0 ],
					"style" : "tatarism",
					"text" : "Your solution"
				}

			}
, 			{
				"box" : 				{
					"id" : "obj-65",
					"maxclass" : "panel",
					"numinlets" : 1,
					"numoutlets" : 0,
					"patching_rect" : [ 529.0, 128.0, 624.0, 466.0 ],
					"style" : "tatarism"
				}

			}
, 			{
				"box" : 				{
					"id" : "obj-64",
					"linecount" : 2,
					"maxclass" : "comment",
					"numinlets" : 1,
					"numoutlets" : 0,
					"patching_rect" : [ 231.0, 94.0, 257.0, 34.0 ],
					"presentation" : 1,
					"presentation_linecount" : 3,
					"presentation_rect" : [ 165.5, 113.0, 172.0, 48.0 ],
					"style" : "tatarism",
					"text" : "This bang should start the process that would set a random color to all cells "
				}

			}
, 			{
				"box" : 				{
					"id" : "obj-63",
					"maxclass" : "comment",
					"numinlets" : 1,
					"numoutlets" : 0,
					"patching_rect" : [ 112.5, 35.5, 385.0, 20.0 ],
					"style" : "tatarism",
					"text" : "Following objects should be connected to the inputs of your solution "
				}

			}
, 			{
				"box" : 				{
					"id" : "obj-60",
					"maxclass" : "comment",
					"numinlets" : 1,
					"numoutlets" : 0,
					"patching_rect" : [ 299.928589, 717.0, 354.0, 20.0 ],
					"style" : "tatarism",
					"text" : "This pack object combines a message to set a one cell's color"
				}

			}
, 			{
				"box" : 				{
					"id" : "obj-52",
					"maxclass" : "comment",
					"numinlets" : 1,
					"numoutlets" : 0,
					"patching_rect" : [ 112.5, 410.0, 391.0, 20.0 ],
					"style" : "tatarism",
					"text" : "Following objects should be connected to the outputs of your solution "
				}

			}
, 			{
				"box" : 				{
					"id" : "obj-50",
					"maxclass" : "comment",
					"numinlets" : 1,
					"numoutlets" : 0,
					"patching_rect" : [ 341.0, 654.0, 163.0, 20.0 ],
					"style" : "tatarism",
					"text" : "Blue value of the cell's color"
				}

			}
, 			{
				"box" : 				{
					"id" : "obj-48",
					"maxclass" : "comment",
					"numinlets" : 1,
					"numoutlets" : 0,
					"patching_rect" : [ 317.0, 624.0, 189.0, 20.0 ],
					"style" : "tatarism",
					"text" : "Green value of the cell's color"
				}

			}
, 			{
				"box" : 				{
					"id" : "obj-47",
					"maxclass" : "comment",
					"numinlets" : 1,
					"numoutlets" : 0,
					"patching_rect" : [ 294.5, 593.0, 210.0, 20.0 ],
					"style" : "tatarism",
					"text" : "Red value of the cell's color"
				}

			}
, 			{
				"box" : 				{
					"id" : "obj-43",
					"maxclass" : "comment",
					"numinlets" : 1,
					"numoutlets" : 0,
					"patching_rect" : [ 235.0, 532.0, 177.0, 20.0 ],
					"style" : "tatarism",
					"text" : "y coordinate of the cell"
				}

			}
, 			{
				"box" : 				{
					"id" : "obj-42",
					"maxclass" : "comment",
					"numinlets" : 1,
					"numoutlets" : 0,
					"patching_rect" : [ 201.5, 495.0, 140.0, 20.0 ],
					"style" : "tatarism",
					"text" : "x coordinate of the cell"
				}

			}
, 			{
				"box" : 				{
					"id" : "obj-41",
					"maxclass" : "comment",
					"numinlets" : 1,
					"numoutlets" : 0,
					"patching_rect" : [ 171.5, 452.5, 177.0, 20.0 ],
					"style" : "tatarism",
					"text" : "Bang to set the color of a cell"
				}

			}
, 			{
				"box" : 				{
					"id" : "obj-38",
					"maxclass" : "number",
					"numinlets" : 1,
					"numoutlets" : 2,
					"outlettype" : [ "", "bang" ],
					"parameter_enable" : 0,
					"patching_rect" : [ 278.928589, 654.0, 57.0, 22.0 ],
					"style" : "tatarism"
				}

			}
, 			{
				"box" : 				{
					"id" : "obj-36",
					"maxclass" : "number",
					"numinlets" : 1,
					"numoutlets" : 2,
					"outlettype" : [ "", "bang" ],
					"parameter_enable" : 0,
					"patching_rect" : [ 256.5, 624.0, 57.0, 22.0 ],
					"style" : "tatarism"
				}

			}
, 			{
				"box" : 				{
					"id" : "obj-31",
					"maxclass" : "number",
					"numinlets" : 1,
					"numoutlets" : 2,
					"outlettype" : [ "", "bang" ],
					"parameter_enable" : 0,
					"patching_rect" : [ 235.0, 593.0, 57.0, 22.0 ],
					"style" : "tatarism"
				}

			}
, 			{
				"box" : 				{
					"id" : "obj-22",
					"maxclass" : "number",
					"numinlets" : 1,
					"numoutlets" : 2,
					"outlettype" : [ "", "bang" ],
					"parameter_enable" : 0,
					"patching_rect" : [ 166.785721, 532.0, 57.0, 22.0 ],
					"style" : "tatarism"
				}

			}
, 			{
				"box" : 				{
					"id" : "obj-18",
					"maxclass" : "number",
					"numinlets" : 1,
					"numoutlets" : 2,
					"outlettype" : [ "", "bang" ],
					"parameter_enable" : 0,
					"patching_rect" : [ 142.5, 495.0, 57.0, 22.0 ],
					"style" : "tatarism"
				}

			}
, 			{
				"box" : 				{
					"id" : "obj-11",
					"maxclass" : "button",
					"numinlets" : 1,
					"numoutlets" : 1,
					"outlettype" : [ "bang" ],
					"patching_rect" : [ 121.928574, 440.0, 47.0, 47.0 ],
					"style" : "tatarism"
				}

			}
, 			{
				"box" : 				{
					"fontsize" : 20.0,
					"id" : "obj-78",
					"maxclass" : "comment",
					"numinlets" : 1,
					"numoutlets" : 0,
					"patching_rect" : [ 529.0, 10.5, 667.0, 29.0 ],
					"presentation" : 1,
					"presentation_linecount" : 2,
					"presentation_rect" : [ 6.5, 5.0, 476.0, 52.0 ],
					"style" : "",
					"text" : "Generative Art and Computational Creativity - Assignment 2 - Template\n"
				}

			}
, 			{
				"box" : 				{
					"id" : "obj-46",
					"maxclass" : "newobj",
					"numinlets" : 0,
					"numoutlets" : 1,
					"outlettype" : [ "" ],
					"patching_rect" : [ 171.5, 743.0, 41.0, 22.0 ],
					"style" : "tatarism",
					"text" : "r dim"
				}

			}
, 			{
				"box" : 				{
					"id" : "obj-45",
					"maxclass" : "newobj",
					"numinlets" : 1,
					"numoutlets" : 0,
					"patching_rect" : [ 56.5, 266.0, 39.0, 22.0 ],
					"style" : "tatarism",
					"text" : "s dim"
				}

			}
, 			{
				"box" : 				{
					"id" : "obj-23",
					"linecount" : 4,
					"maxclass" : "comment",
					"numinlets" : 1,
					"numoutlets" : 0,
					"patching_rect" : [ 347.0, 750.5, 375.0, 62.0 ],
					"style" : "tatarism",
					"text" : "jit.pwindow object visualizes the data matrix send by the jit.matrix object. jit.pwindow uses Alpha-Red-Green-Blue (ARGB) color format as default. That is why we have 4 values after the \"val\" argument of setcell message"
				}

			}
, 			{
				"box" : 				{
					"id" : "obj-21",
					"linecount" : 2,
					"maxclass" : "comment",
					"numinlets" : 1,
					"numoutlets" : 0,
					"patching_rect" : [ 256.5, 834.5, 277.0, 34.0 ],
					"style" : "tatarism",
					"text" : "jit.matrix is a jitter matrix container. This object contains a 10x10 jitter matrix with 4 planes."
				}

			}
, 			{
				"box" : 				{
					"id" : "obj-9",
					"maxclass" : "comment",
					"numinlets" : 1,
					"numoutlets" : 0,
					"patching_rect" : [ 213.0, 268.0, 190.0, 20.0 ],
					"presentation" : 1,
					"presentation_rect" : [ 153.5, 289.0, 184.0, 20.0 ],
					"style" : "tatarism",
					"text" : "total_number_of_cells = x * y"
				}

			}
, 			{
				"box" : 				{
					"id" : "obj-39",
					"linecount" : 2,
					"maxclass" : "comment",
					"numinlets" : 1,
					"numoutlets" : 0,
					"patching_rect" : [ 210.5, 228.0, 284.0, 34.0 ],
					"presentation" : 1,
					"presentation_linecount" : 2,
					"presentation_rect" : [ 74.0, 248.0, 204.0, 34.0 ],
					"style" : "tatarism",
					"text" : "y_range: Number of cells along y dimension of the jitter matrix"
				}

			}
, 			{
				"box" : 				{
					"id" : "obj-37",
					"linecount" : 2,
					"maxclass" : "comment",
					"numinlets" : 1,
					"numoutlets" : 0,
					"patching_rect" : [ 180.5, 180.5, 307.0, 34.0 ],
					"presentation" : 1,
					"presentation_linecount" : 2,
					"presentation_rect" : [ 74.0, 193.0, 204.0, 34.0 ],
					"style" : "tatarism",
					"text" : "x_range: Number of cells along x dimension of the jitter matrix"
				}

			}
, 			{
				"box" : 				{
					"id" : "obj-34",
					"maxclass" : "newobj",
					"numinlets" : 2,
					"numoutlets" : 1,
					"outlettype" : [ "" ],
					"patching_rect" : [ 56.5, 232.0, 54.0, 22.0 ],
					"style" : "tatarism",
					"text" : "pak 0 0"
				}

			}
, 			{
				"box" : 				{
					"id" : "obj-33",
					"maxclass" : "newobj",
					"numinlets" : 1,
					"numoutlets" : 1,
					"outlettype" : [ "" ],
					"patching_rect" : [ 171.5, 773.0, 81.0, 22.0 ],
					"style" : "tatarism",
					"text" : "prepend dim"
				}

			}
, 			{
				"box" : 				{
					"id" : "obj-32",
					"maxclass" : "number",
					"numinlets" : 1,
					"numoutlets" : 2,
					"outlettype" : [ "", "bang" ],
					"parameter_enable" : 1,
					"patching_rect" : [ 153.5, 228.0, 56.0, 22.0 ],
					"presentation" : 1,
					"presentation_rect" : [ 6.5, 255.0, 56.0, 22.0 ],
					"saved_attribute_attributes" : 					{
						"valueof" : 						{
							"parameter_longname" : "number[1]",
							"parameter_shortname" : "number",
							"parameter_type" : 3,
							"parameter_initial_enable" : 1,
							"parameter_initial" : [ 10 ],
							"parameter_invisible" : 1
						}

					}
,
					"style" : "tatarism",
					"varname" : "number[1]"
				}

			}
, 			{
				"box" : 				{
					"id" : "obj-30",
					"maxclass" : "number",
					"numinlets" : 1,
					"numoutlets" : 2,
					"outlettype" : [ "", "bang" ],
					"parameter_enable" : 1,
					"patching_rect" : [ 118.5, 187.5, 56.0, 22.0 ],
					"presentation" : 1,
					"presentation_rect" : [ 6.5, 200.0, 56.0, 22.0 ],
					"saved_attribute_attributes" : 					{
						"valueof" : 						{
							"parameter_longname" : "number",
							"parameter_shortname" : "number",
							"parameter_type" : 3,
							"parameter_initial_enable" : 1,
							"parameter_initial" : [ 10 ],
							"parameter_invisible" : 1
						}

					}
,
					"style" : "tatarism",
					"varname" : "number"
				}

			}
, 			{
				"box" : 				{
					"id" : "obj-19",
					"maxclass" : "newobj",
					"numinlets" : 2,
					"numoutlets" : 1,
					"outlettype" : [ "bang" ],
					"patching_rect" : [ 191.0, 801.0, 125.0, 22.0 ],
					"style" : "tatarism",
					"text" : "qmetro 33 @active 1"
				}

			}
, 			{
				"box" : 				{
					"id" : "obj-5",
					"maxclass" : "newobj",
					"numinlets" : 1,
					"numoutlets" : 2,
					"outlettype" : [ "jit_matrix", "" ],
					"patching_rect" : [ 119.5, 838.0, 133.0, 22.0 ],
					"style" : "tatarism",
					"text" : "jit.matrix 4 char 10 10"
				}

			}
, 			{
				"box" : 				{
					"id" : "obj-25",
					"maxclass" : "newobj",
					"numinlets" : 8,
					"numoutlets" : 1,
					"outlettype" : [ "" ],
					"patching_rect" : [ 121.928574, 717.0, 176.0, 22.0 ],
					"style" : "tatarism",
					"text" : "pack setcell 0 0 val 255 0 0 0"
				}

			}
, 			{
				"box" : 				{
					"id" : "obj-53",
					"maxclass" : "panel",
					"numinlets" : 1,
					"numoutlets" : 0,
					"patching_rect" : [ 112.5, 410.0, 391.0, 274.0 ],
					"style" : "tatarism"
				}

			}
, 			{
				"box" : 				{
					"id" : "obj-35",
					"maxclass" : "jit.pwindow",
					"numinlets" : 1,
					"numoutlets" : 2,
					"outlettype" : [ "", "" ],
					"patching_rect" : [ 119.5, 881.0, 400.0, 400.0 ],
					"presentation" : 1,
					"presentation_rect" : [ 6.5, 319.0, 400.0, 400.0 ]
				}

			}
, 			{
				"box" : 				{
					"id" : "obj-44",
					"maxclass" : "panel",
					"numinlets" : 1,
					"numoutlets" : 0,
					"patching_rect" : [ 112.5, 717.0, 603.428589, 569.0 ],
					"style" : "tatarism"
				}

			}
, 			{
				"box" : 				{
					"activebgcolor" : [ 0.4, 0.4, 0.4, 0.09 ],
					"activebgoncolor" : [ 0.701961, 0.415686, 0.886275, 0.56 ],
					"id" : "obj-49",
					"maxclass" : "live.button",
					"numinlets" : 1,
					"numoutlets" : 1,
					"outlettype" : [ "" ],
					"parameter_enable" : 1,
					"patching_rect" : [ 118.5, 61.5, 101.0, 98.0 ],
					"presentation" : 1,
					"presentation_rect" : [ 40.0, 90.5, 101.0, 98.0 ],
					"saved_attribute_attributes" : 					{
						"valueof" : 						{
							"parameter_longname" : "live.button",
							"parameter_shortname" : "live.button",
							"parameter_type" : 2,
							"parameter_mmax" : 1.0,
							"parameter_enum" : [ "off", "on" ]
						}

					}
,
					"varname" : "live.button"
				}

			}
, 			{
				"box" : 				{
					"id" : "obj-55",
					"linecount" : 2,
					"maxclass" : "comment",
					"numinlets" : 1,
					"numoutlets" : 0,
					"patching_rect" : [ 118.5, 94.0, 101.0, 34.0 ],
					"presentation" : 1,
					"presentation_linecount" : 2,
					"presentation_rect" : [ 37.5, 120.5, 106.0, 34.0 ],
					"style" : "",
					"text" : "Generate a\nvisual",
					"textjustification" : 1
				}

			}
, 			{
				"box" : 				{
					"id" : "obj-56",
					"maxclass" : "panel",
					"numinlets" : 1,
					"numoutlets" : 0,
					"patching_rect" : [ 112.5, 35.5, 385.0, 254.5 ],
					"presentation" : 1,
					"presentation_rect" : [ 6.5, 69.5, 331.0, 241.5 ],
					"style" : "tatarism"
				}

			}
 ],
		"lines" : [ 			{
				"patchline" : 				{
					"destination" : [ "obj-35", 0 ],
					"order" : 1,
					"source" : [ "obj-10", 0 ]
				}

			}
, 			{
				"patchline" : 				{
					"destination" : [ "obj-7", 0 ],
					"order" : 0,
					"source" : [ "obj-10", 0 ]
				}

			}
, 			{
				"patchline" : 				{
					"destination" : [ "obj-25", 0 ],
					"source" : [ "obj-11", 0 ]
				}

			}
, 			{
				"patchline" : 				{
					"destination" : [ "obj-14", 0 ],
					"source" : [ "obj-13", 0 ]
				}

			}
, 			{
				"patchline" : 				{
					"destination" : [ "obj-10", 0 ],
					"source" : [ "obj-14", 0 ]
				}

			}
, 			{
				"patchline" : 				{
					"destination" : [ "obj-25", 1 ],
					"source" : [ "obj-18", 0 ]
				}

			}
, 			{
				"patchline" : 				{
					"destination" : [ "obj-5", 0 ],
					"source" : [ "obj-19", 0 ]
				}

			}
, 			{
				"patchline" : 				{
					"destination" : [ "obj-7", 0 ],
					"source" : [ "obj-2", 0 ]
				}

			}
, 			{
				"patchline" : 				{
					"destination" : [ "obj-25", 2 ],
					"source" : [ "obj-22", 0 ]
				}

			}
, 			{
				"patchline" : 				{
					"destination" : [ "obj-5", 0 ],
					"source" : [ "obj-25", 0 ]
				}

			}
, 			{
				"patchline" : 				{
					"destination" : [ "obj-34", 0 ],
					"source" : [ "obj-30", 0 ]
				}

			}
, 			{
				"patchline" : 				{
					"destination" : [ "obj-25", 5 ],
					"source" : [ "obj-31", 0 ]
				}

			}
, 			{
				"patchline" : 				{
					"destination" : [ "obj-34", 1 ],
					"source" : [ "obj-32", 0 ]
				}

			}
, 			{
				"patchline" : 				{
					"destination" : [ "obj-5", 0 ],
					"source" : [ "obj-33", 0 ]
				}

			}
, 			{
				"patchline" : 				{
					"destination" : [ "obj-45", 0 ],
					"source" : [ "obj-34", 0 ]
				}

			}
, 			{
				"patchline" : 				{
					"destination" : [ "obj-25", 6 ],
					"source" : [ "obj-36", 0 ]
				}

			}
, 			{
				"patchline" : 				{
					"destination" : [ "obj-25", 7 ],
					"source" : [ "obj-38", 0 ]
				}

			}
, 			{
				"patchline" : 				{
					"destination" : [ "obj-33", 0 ],
					"source" : [ "obj-46", 0 ]
				}

			}
, 			{
				"patchline" : 				{
					"destination" : [ "obj-10", 0 ],
					"source" : [ "obj-49", 0 ]
				}

			}
, 			{
				"patchline" : 				{
					"destination" : [ "obj-1", 0 ],
					"source" : [ "obj-6", 0 ]
				}

			}
, 			{
				"patchline" : 				{
					"destination" : [ "obj-20", 0 ],
					"source" : [ "obj-8", 0 ]
				}

			}
 ],
		"parameters" : 		{
			"obj-30" : [ "number", "number", 0 ],
			"obj-49" : [ "live.button", "live.button", 0 ],
			"obj-32" : [ "number[1]", "number", 0 ]
		}
,
		"dependency_cache" : [  ],
		"autosave" : 0,
		"styles" : [ 			{
				"name" : "Jamoma_highlighted_orange",
				"default" : 				{
					"accentcolor" : [ 1.0, 0.5, 0.0, 1.0 ]
				}
,
				"parentstyle" : "",
				"multi" : 0
			}
, 			{
				"name" : "tatarism",
				"default" : 				{
					"color" : [ 0.701961, 0.415686, 0.886275, 1.0 ],
					"textcolor_inverse" : [ 0.862745, 0.870588, 0.878431, 1.0 ],
					"fontname" : [ "Futura Medium" ],
					"elementcolor" : [ 0.589653, 0.589635, 0.589645, 1.0 ],
					"bgcolor" : [ 0.19771, 0.188048, 0.201856, 1.0 ],
					"textcolor" : [ 1.0, 1.0, 1.0, 1.0 ]
				}
,
				"parentstyle" : "",
				"multi" : 0
			}
, 			{
				"name" : "tatarism-1",
				"default" : 				{
					"color" : [ 0.701961, 0.415686, 0.886275, 1.0 ],
					"textcolor_inverse" : [ 0.862745, 0.870588, 0.878431, 1.0 ],
					"fontname" : [ "Futura Medium" ],
					"elementcolor" : [ 0.589653, 0.589635, 0.589645, 1.0 ],
					"bgcolor" : [ 0.19771, 0.188048, 0.201856, 1.0 ],
					"textcolor" : [ 1.0, 1.0, 1.0, 1.0 ],
					"bgfillcolor" : 					{
						"type" : "gradient",
						"color" : [ 0.290196, 0.309804, 0.301961, 1.0 ],
						"color1" : [ 0.372549, 0.196078, 0.486275, 1.0 ],
						"color2" : [ 0.290196, 0.309804, 0.301961, 1.0 ],
						"angle" : 270.0,
						"proportion" : 0.39,
						"autogradient" : 0
					}

				}
,
				"parentstyle" : "",
				"multi" : 0
			}
, 			{
				"name" : "tatarism-1-1",
				"default" : 				{
					"color" : [ 0.701961, 0.415686, 0.886275, 1.0 ],
					"textcolor_inverse" : [ 0.862745, 0.870588, 0.878431, 1.0 ],
					"fontname" : [ "Futura Medium" ],
					"elementcolor" : [ 0.589653, 0.589635, 0.589645, 1.0 ],
					"bgcolor" : [ 0.19771, 0.188048, 0.201856, 1.0 ],
					"textcolor" : [ 1.0, 1.0, 1.0, 1.0 ]
				}
,
				"parentstyle" : "",
				"multi" : 0
			}
, 			{
				"name" : "tatarism-1-1-1",
				"default" : 				{
					"color" : [ 0.701961, 0.415686, 0.886275, 1.0 ],
					"textcolor_inverse" : [ 0.862745, 0.870588, 0.878431, 1.0 ],
					"fontname" : [ "Futura Medium" ],
					"elementcolor" : [ 0.589653, 0.589635, 0.589645, 1.0 ],
					"bgcolor" : [ 0.19771, 0.188048, 0.201856, 1.0 ],
					"textcolor" : [ 1.0, 1.0, 1.0, 1.0 ],
					"bgfillcolor" : 					{
						"type" : "gradient",
						"color" : [ 0.290196, 0.309804, 0.301961, 1.0 ],
						"color1" : [ 0.372549, 0.196078, 0.486275, 1.0 ],
						"color2" : [ 0.290196, 0.309804, 0.301961, 1.0 ],
						"angle" : 270.0,
						"proportion" : 0.39,
						"autogradient" : 0
					}

				}
,
				"parentstyle" : "",
				"multi" : 0
			}
, 			{
				"name" : "tatarism-1-1-1-1",
				"default" : 				{
					"color" : [ 0.701961, 0.415686, 0.886275, 1.0 ],
					"textcolor_inverse" : [ 0.862745, 0.870588, 0.878431, 1.0 ],
					"fontname" : [ "Futura Medium" ],
					"elementcolor" : [ 0.589653, 0.589635, 0.589645, 1.0 ],
					"bgcolor" : [ 0.19771, 0.188048, 0.201856, 1.0 ],
					"textcolor" : [ 1.0, 1.0, 1.0, 1.0 ]
				}
,
				"parentstyle" : "",
				"multi" : 0
			}
, 			{
				"name" : "tatarism-1-2",
				"default" : 				{
					"color" : [ 0.701961, 0.415686, 0.886275, 1.0 ],
					"textcolor_inverse" : [ 0.862745, 0.870588, 0.878431, 1.0 ],
					"fontname" : [ "Futura Medium" ],
					"elementcolor" : [ 0.589653, 0.589635, 0.589645, 1.0 ],
					"bgcolor" : [ 0.19771, 0.188048, 0.201856, 1.0 ],
					"textcolor" : [ 1.0, 1.0, 1.0, 1.0 ]
				}
,
				"parentstyle" : "",
				"multi" : 0
			}
, 			{
				"name" : "tatarism-2",
				"default" : 				{
					"color" : [ 0.701961, 0.415686, 0.886275, 1.0 ],
					"textcolor_inverse" : [ 0.862745, 0.870588, 0.878431, 1.0 ],
					"fontname" : [ "Futura Medium" ],
					"elementcolor" : [ 0.589653, 0.589635, 0.589645, 1.0 ],
					"bgcolor" : [ 0.19771, 0.188048, 0.201856, 1.0 ],
					"textcolor" : [ 1.0, 1.0, 1.0, 1.0 ]
				}
,
				"parentstyle" : "",
				"multi" : 0
			}
, 			{
				"name" : "tatarism-3",
				"default" : 				{
					"color" : [ 0.701961, 0.415686, 0.886275, 1.0 ],
					"textcolor_inverse" : [ 0.862745, 0.870588, 0.878431, 1.0 ],
					"fontname" : [ "Futura Medium" ],
					"elementcolor" : [ 0.589653, 0.589635, 0.589645, 1.0 ],
					"bgcolor" : [ 0.19771, 0.188048, 0.201856, 1.0 ],
					"textcolor" : [ 1.0, 1.0, 1.0, 1.0 ]
				}
,
				"parentstyle" : "",
				"multi" : 0
			}
, 			{
				"name" : "tatarism-3-1",
				"default" : 				{
					"color" : [ 0.701961, 0.415686, 0.886275, 1.0 ],
					"textcolor_inverse" : [ 0.862745, 0.870588, 0.878431, 1.0 ],
					"fontname" : [ "Futura Medium" ],
					"elementcolor" : [ 0.589653, 0.589635, 0.589645, 1.0 ],
					"bgcolor" : [ 0.19771, 0.188048, 0.201856, 1.0 ],
					"textcolor" : [ 1.0, 1.0, 1.0, 1.0 ],
					"bgfillcolor" : 					{
						"type" : "gradient",
						"color" : [ 0.290196, 0.309804, 0.301961, 1.0 ],
						"color1" : [ 0.372549, 0.196078, 0.486275, 1.0 ],
						"color2" : [ 0.290196, 0.309804, 0.301961, 1.0 ],
						"angle" : 270.0,
						"proportion" : 0.39,
						"autogradient" : 0
					}

				}
,
				"parentstyle" : "",
				"multi" : 0
			}
, 			{
				"name" : "tatarism-4",
				"default" : 				{
					"color" : [ 0.701961, 0.415686, 0.886275, 1.0 ],
					"textcolor_inverse" : [ 0.862745, 0.870588, 0.878431, 1.0 ],
					"fontname" : [ "Futura Medium" ],
					"elementcolor" : [ 0.589653, 0.589635, 0.589645, 1.0 ],
					"bgcolor" : [ 0.19771, 0.188048, 0.201856, 1.0 ],
					"textcolor" : [ 1.0, 1.0, 1.0, 1.0 ]
				}
,
				"parentstyle" : "",
				"multi" : 0
			}
 ]
	}

}
